<?xml version="1.0" standalone="no"?>
<!DOCTYPE svg PUBLIC "-//W3C//DTD SVG 20010904//EN"
 "http://www.w3.org/TR/2001/REC-SVG-20010904/DTD/svg10.dtd">
<svg version="1.0" xmlns="http://www.w3.org/2000/svg"
 width="260.000000pt" height="260.000000pt" viewBox="0 0 260.000000 260.000000"
 preserveAspectRatio="xMidYMid meet">
<metadata>
Created by potrace 1.14, written by Peter Selinger 2001-2017
</metadata>
<g transform="translate(0.000000,260.000000) scale(0.100000,-0.100000)"
fill="#000000" stroke="none">
<path d="M2150 2375 c0 -9 -6 -18 -14 -21 -15 -6 -40 -64 -31 -72 3 -3 5 -1 5
5 0 6 9 13 20 16 25 6 26 -8 3 -22 -15 -9 -12 -11 17 -12 19 -2 43 -3 53 -2 9
0 17 -4 17 -9 0 -5 13 -2 30 7 32 17 64 20 95 11 11 -4 26 -2 34 3 13 8 13 12
0 28 -13 17 -13 17 13 0 15 -9 34 -17 42 -17 8 0 27 -5 43 -11 15 -6 40 -12
54 -13 25 -1 25 0 10 26 -9 15 -17 23 -19 18 -5 -15 -29 -12 -36 5 -3 8 -10
15 -16 15 -6 0 -8 -4 -5 -10 8 -14 2 -13 -31 5 -16 8 -39 15 -51 15 -13 0 -23
5 -23 11 0 6 -7 9 -15 5 -8 -3 -21 1 -29 9 -15 16 -50 19 -110 9 -27 -5 -37
-3 -32 5 4 6 1 11 -8 11 -9 0 -16 -7 -16 -15z"/>
<path d="M1625 2370 c-4 -6 -23 -8 -43 -5 l-37 5 35 -14 c19 -7 36 -10 38 -5
2 4 10 5 18 2 8 -3 14 1 14 11 0 18 -15 21 -25 6z"/>
<path d="M2415 2360 c-18 -8 -17 -9 8 -9 16 -1 26 3 22 9 -3 6 -7 10 -8 9 -1
0 -11 -4 -22 -9z"/>
<path d="M2532 2363 c-9 -4 -5 -11 15 -23 32 -19 53 -16 53 9 0 17 -40 25 -68
14z"/>
<path d="M2096 2343 c-6 -14 -5 -15 5 -6 7 7 10 15 7 18 -3 3 -9 -2 -12 -12z"/>
<path d="M1495 2331 c-3 -5 -1 -12 4 -15 5 -3 11 1 15 9 6 16 -9 21 -19 6z"/>
<path d="M90 2301 c14 -11 27 -15 29 -10 4 13 2 15 -29 23 l-25 7 25 -20z"/>
<path d="M1550 2299 c0 -5 5 -7 10 -4 6 3 10 8 10 11 0 2 -4 4 -10 4 -5 0 -10
-5 -10 -11z"/>
<path d="M975 2290 c-3 -5 -1 -10 4 -10 6 0 11 5 11 10 0 6 -2 10 -4 10 -3 0
-8 -4 -11 -10z"/>
<path d="M1695 2290 c-3 -6 -12 -9 -18 -8 -18 3 -57 -25 -57 -41 0 -11 -3 -11
-15 -1 -8 6 -30 13 -49 15 -20 2 -44 6 -55 10 -15 4 -39 -7 -85 -39 -57 -40
-66 -43 -71 -27 -8 27 -49 45 -82 36 -47 -13 -57 -15 -88 -18 -19 -1 -30 -8
-30 -17 0 -22 33 -24 72 -3 33 17 35 17 47 0 13 -16 14 -16 29 5 l16 23 0 -27
c1 -24 5 -28 29 -28 25 -1 26 -2 9 -14 -12 -10 -15 -16 -7 -21 6 -4 17 1 24
10 12 17 13 16 19 -4 4 -15 -1 -24 -15 -32 -18 -10 -24 -7 -39 12 -10 13 -19
22 -19 19 -1 -3 -7 -38 -13 -78 l-12 -73 -44 61 c-59 81 -71 79 -72 -12 -1
-40 -4 -95 -7 -123 l-7 -50 -55 6 c-30 3 -44 7 -30 9 14 1 31 2 39 1 7 -2 10
3 6 9 -4 6 -12 9 -18 7 -7 -2 -23 0 -36 5 -26 9 -94 -10 -85 -24 3 -5 10 -6
15 -2 5 3 15 1 22 -4 7 -6 26 -12 42 -15 25 -3 22 -4 -12 -6 -23 0 -48 -4 -57
-7 -27 -10 -18 -24 17 -25 31 -1 31 -1 6 -8 -52 -17 -71 -31 -58 -47 16 -20
99 -19 99 1 0 13 9 15 53 9 28 -4 55 -12 59 -18 4 -6 8 -40 8 -76 0 -80 -7
-85 -110 -89 -41 -1 -92 -6 -114 -11 -21 -5 -45 -6 -52 -3 -8 3 -14 1 -14 -4
0 -5 -24 -34 -54 -64 -34 -36 -61 -75 -74 -110 -17 -45 -23 -53 -42 -51 -12 2
-32 -5 -44 -16 -11 -11 -36 -27 -53 -36 l-33 -16 10 24 c15 40 34 66 48 66 10
0 9 7 -3 30 -19 37 -19 38 7 42 32 5 39 46 18 120 -9 34 -20 81 -24 103 l-8
40 19 -25 c27 -34 40 -77 38 -124 l-2 -39 22 26 c27 35 32 34 27 -8 -5 -43 13
-47 48 -10 19 20 22 31 16 66 -10 64 -23 82 -47 68 -28 -15 -48 -5 -61 31 -8
23 -16 30 -32 28 -17 -2 -21 2 -21 25 -1 34 -32 58 -41 32 -4 -8 -4 -29 0 -45
3 -18 1 -30 -5 -30 -6 0 -8 -10 -4 -22 5 -20 4 -21 -5 -5 -16 26 -27 21 -41
-18 -10 -27 -19 -35 -39 -35 -14 -1 -36 -7 -50 -15 -26 -14 -21 -20 24 -27 11
-2 21 -9 24 -15 6 -20 -27 -27 -46 -11 -11 9 -29 12 -52 8 -23 -3 -31 -8 -22
-13 21 -14 14 -37 -11 -37 -32 0 -56 -29 -52 -63 l3 -27 -29 17 c-16 10 -27
23 -24 30 6 17 -30 53 -52 53 -15 0 -13 -4 7 -20 l25 -20 -35 10 c-52 15 -82
12 -40 -3 19 -7 43 -18 53 -23 16 -9 17 -12 3 -23 -9 -8 -16 -20 -16 -27 0 -8
-5 -14 -11 -14 -5 0 -7 5 -4 10 8 14 3 13 -34 -6 -25 -13 -35 -14 -44 -5 -9 9
-8 11 6 5 13 -5 20 -1 24 15 3 14 13 21 29 21 26 0 30 10 12 28 -15 15 -54 16
-63 2 -12 -20 -36 -11 -33 13 2 13 10 22 20 22 9 0 20 3 23 7 10 10 -32 29
-49 22 -9 -3 -16 -1 -16 5 0 16 -46 13 -60 -4 -18 -21 -8 -27 24 -16 23 9 26
8 26 -9 0 -11 5 -20 10 -20 6 0 10 -5 10 -11 0 -7 -14 -8 -40 -4 -37 6 -40 5
-40 -15 0 -23 17 -24 63 -5 12 5 17 2 17 -10 0 -9 -4 -14 -9 -10 -15 9 -65
-40 -58 -57 8 -22 57 -11 57 11 0 30 12 31 33 5 15 -19 18 -34 13 -64 -5 -35
-4 -38 14 -33 11 3 20 10 20 15 0 6 11 7 26 4 19 -5 30 -2 40 11 13 17 15 17
38 -9 19 -21 25 -24 30 -13 6 17 36 21 36 5 0 -6 18 -7 45 -3 50 6 59 -5 22
-30 l-22 -16 22 0 c25 -1 56 -28 47 -42 -3 -5 -10 -7 -15 -4 -5 4 -9 -1 -9
-10 0 -9 5 -13 10 -10 6 4 16 2 23 -3 19 -15 77 -3 77 17 0 19 23 88 33 97 4
4 7 -18 7 -49 0 -49 2 -56 17 -51 10 3 6 -3 -9 -12 -16 -11 -28 -28 -28 -40 0
-24 22 -38 37 -23 5 5 17 4 29 -5 18 -14 18 -15 -6 -24 -20 -8 -34 -4 -68 15
-33 20 -42 22 -42 10 0 -9 10 -17 22 -19 15 -2 23 -10 23 -23 0 -17 -6 -19
-40 -17 -22 2 -45 8 -52 13 -17 14 -26 -6 -18 -41 6 -29 6 -30 -20 -20 -37 14
-45 13 -45 -9 0 -32 -24 -43 -46 -22 -18 18 -19 17 -37 -8 l-18 -26 6 26 c9
38 -12 47 -37 15 -19 -22 -23 -24 -33 -9 -13 18 -55 10 -55 -11 0 -6 -9 -12
-19 -12 -11 0 -18 3 -15 7 2 4 -2 12 -9 17 -17 15 -57 4 -50 -13 2 -8 1 -21
-5 -30 -7 -14 -11 -12 -23 13 -13 27 -14 22 -17 -77 -1 -58 0 -125 4 -149 l5
-43 31 26 c17 14 45 32 63 39 18 8 36 19 39 25 4 6 14 11 22 11 12 0 12 -4 -3
-24 -12 -16 -20 -20 -25 -12 -4 6 -12 -2 -19 -22 -10 -29 -15 -32 -40 -28 -41
6 -73 -22 -74 -66 -1 -26 3 -34 17 -35 21 -2 45 33 26 39 -18 6 1 28 24 28 16
0 19 -5 15 -20 -5 -20 -2 -21 61 -17 37 2 75 0 84 -5 13 -6 23 -2 40 17 12 14
29 25 37 25 9 1 2 7 -15 14 -39 17 -58 42 -26 34 29 -8 28 1 -3 35 -28 30 -22
36 12 12 15 -10 24 -12 28 -4 5 7 13 5 25 -6 11 -10 20 -12 24 -6 4 5 -6 17
-21 25 -15 8 -23 15 -18 16 13 0 55 -29 55 -38 0 -4 -4 -13 -9 -21 -8 -12 -12
-12 -25 -2 -14 12 -16 10 -16 -8 0 -11 5 -21 11 -21 5 0 8 -4 4 -9 -3 -5 3
-12 14 -16 11 -3 26 -17 35 -30 14 -21 22 -24 66 -21 63 3 71 11 26 26 l-35
11 21 21 c17 17 19 23 7 26 -8 3 -17 10 -21 16 -5 8 -13 7 -28 -2 -26 -16 -26
2 0 28 25 25 50 26 50 1 0 -11 6 -21 12 -23 7 -3 13 -13 13 -24 0 -15 7 -19
33 -17 72 3 107 33 102 91 -2 26 24 39 45 22 13 -11 13 -14 -2 -26 -16 -12
-16 -15 -3 -24 17 -11 92 -9 101 3 11 15 49 -63 49 -99 0 -33 12 -45 25 -24 3
6 11 10 17 10 6 0 1 -11 -12 -25 -20 -21 -22 -28 -12 -50 11 -25 13 -25 37 -9
14 9 28 14 31 12 2 -3 -7 -13 -22 -22 -25 -17 -25 -18 -8 -37 17 -18 16 -19
-27 -20 l-44 -1 40 -9 c22 -4 99 -8 170 -8 72 -1 194 -4 272 -8 138 -6 142 -7
147 -30 4 -15 14 -23 27 -23 12 0 17 4 13 11 -3 6 5 3 20 -6 32 -21 71 -13 87
18 17 32 28 37 87 37 28 0 52 5 52 10 0 6 -30 10 -67 11 l-68 0 50 16 c28 8
59 23 71 34 11 10 25 19 31 19 9 0 43 52 43 65 0 10 -35 13 -45 5 -10 -8 -15
-4 -20 20 -5 24 -1 40 19 71 31 46 51 93 36 84 -6 -3 -10 -10 -10 -16 0 -14
-74 -129 -83 -129 -4 0 -37 -23 -73 -51 -72 -55 -108 -73 -169 -83 -62 -11
-79 7 -79 85 0 80 28 165 105 327 33 67 59 133 59 145 0 12 5 29 10 37 7 11 8
5 3 -19 -11 -57 36 -75 80 -29 23 24 12 23 -20 -1 -13 -11 -31 -17 -39 -14
-19 7 -18 37 1 53 10 8 12 16 6 19 -6 4 -17 23 -25 42 -17 40 -20 35 54 68
l25 10 -27 -5 c-33 -7 -34 -2 -5 56 16 33 36 53 77 78 30 18 59 31 64 29 29
-10 46 -56 52 -139 7 -88 17 -104 29 -48 6 29 28 40 40 21 5 -9 23 -9 80 2 11
2 20 11 20 20 0 8 4 19 8 23 4 4 7 1 7 -6 0 -12 3 -11 15 1 10 10 27 14 45 11
32 -5 39 -16 15 -26 -8 -3 -15 -12 -15 -21 0 -8 -5 -15 -11 -15 -6 0 -9 7 -5
15 11 30 -35 15 -74 -25 -32 -33 -36 -40 -20 -40 13 0 17 -5 14 -15 -4 -9 3
-19 18 -25 14 -7 24 -20 24 -36 2 -33 8 -38 40 -30 21 6 25 11 21 31 -5 29 -6
29 39 10 30 -12 35 -19 31 -37 -5 -19 -4 -21 6 -8 14 19 57 24 57 7 0 -8 3 -8
12 1 9 9 8 17 -2 37 -11 21 -11 27 0 38 8 7 11 8 7 1 -10 -17 20 -82 42 -94
31 -16 70 3 64 32 -4 21 -1 23 35 22 22 0 59 4 83 11 34 8 50 8 69 -2 15 -8
19 -13 10 -14 -8 -1 1 -5 20 -9 43 -10 50 -6 50 32 0 29 -1 30 -17 16 -20 -17
-43 -13 -43 7 0 8 -9 19 -20 25 -11 6 -20 7 -20 1 0 -5 -10 -9 -22 -9 -13 0
-32 -2 -43 -4 -11 -3 -14 -3 -7 -1 18 7 15 23 -5 23 -16 0 -16 2 -3 11 11 8 6
9 -22 7 -26 -3 -38 0 -38 9 0 17 -26 17 -34 1 -3 -7 -4 -1 -1 15 3 15 2 26 -2
25 -5 -1 -18 3 -30 10 -21 11 -23 10 -23 -8 0 -13 7 -20 20 -20 15 0 20 -7 20
-25 0 -14 4 -25 9 -25 15 0 24 -41 12 -53 -6 -6 -12 -22 -12 -37 -2 -24 -2
-24 -6 -2 -3 17 -10 23 -22 19 -15 -4 -18 2 -17 27 1 25 -3 32 -21 34 -29 4
-29 20 -1 31 l22 8 -22 12 c-13 7 -32 9 -45 5 -38 -13 -97 -10 -97 4 0 8 9 16
20 19 16 4 19 11 14 27 -6 18 -3 17 19 -6 31 -33 46 -35 77 -8 21 18 22 20 4
26 -48 14 -60 29 -45 53 5 8 16 11 30 6 17 -5 20 -10 11 -20 -15 -18 16 -25
47 -12 16 7 27 6 38 -3 18 -15 20 -36 3 -44 -7 -3 -4 -5 7 -5 37 2 45 -1 45
-16 0 -8 5 -15 11 -15 5 0 8 -4 5 -9 -3 -4 25 -11 61 -14 37 -3 69 -10 71 -16
2 -6 12 -21 22 -33 17 -21 20 -22 36 -6 17 17 12 38 -11 38 -7 0 -23 15 -34
34 -25 40 -27 53 -4 31 15 -16 18 -16 28 -1 16 22 25 20 25 -4 0 -11 7 -20 15
-20 8 0 15 7 15 16 0 10 5 14 15 10 13 -5 15 10 14 107 0 61 -6 118 -11 125
-7 8 -7 12 1 12 20 0 13 51 -9 57 -11 3 -20 9 -20 13 0 4 9 10 20 13 11 3 20
10 20 15 0 6 -6 9 -12 7 -43 -10 -57 -18 -51 -29 4 -6 0 -6 -9 2 -13 10 -21
10 -43 0 -24 -11 -25 -13 -10 -24 9 -7 23 -10 31 -7 15 5 44 -13 44 -28 0 -5
-9 -9 -20 -9 -26 0 -25 -7 3 -32 12 -11 17 -17 11 -14 -18 9 -74 -5 -74 -19 0
-6 -7 -12 -15 -12 -8 0 -15 6 -15 14 0 7 -5 13 -10 13 -6 0 -10 6 -9 13 1 6
-2 21 -6 31 -6 13 -4 21 3 24 16 5 -4 42 -22 42 -19 0 -29 -30 -15 -46 9 -11
6 -14 -20 -14 -19 0 -31 -5 -31 -13 0 -21 -46 -42 -63 -29 -19 16 -77 -6 -77
-30 0 -10 -6 -18 -14 -18 -9 0 -12 -7 -9 -19 6 -25 -14 -36 -33 -17 -12 12
-13 20 -4 37 9 16 7 29 -9 65 -12 24 -27 43 -33 41 -7 -1 -19 13 -27 31 -8 17
-19 32 -23 32 -5 0 -6 -5 -2 -11 4 -7 -1 -7 -16 1 -12 6 -19 18 -16 25 8 21
-16 23 -36 3 -18 -18 -18 -19 7 -46 31 -33 32 -49 3 -58 -16 -5 -26 -1 -36 14
-13 20 -16 21 -44 6 -24 -13 -27 -18 -17 -30 6 -8 9 -17 7 -20 -3 -3 -14 6
-24 19 -31 38 -56 48 -76 30 -18 -16 -24 -8 -10 13 10 16 48 34 69 34 17 -1
16 -2 -2 -16 -17 -13 -18 -16 -5 -24 11 -7 17 -4 24 10 5 11 22 25 37 32 35
15 18 29 -26 21 -27 -6 -29 -5 -17 10 8 9 28 17 45 19 23 2 33 9 35 23 2 12 0
16 -5 8 -10 -14 -83 -29 -83 -16 0 16 33 41 63 48 30 8 37 24 10 23 -10 0 -37
7 -61 15 -42 16 -70 14 -84 -7 -4 -6 -2 -14 5 -18 8 -5 5 -8 -8 -8 -17 0 -16
-3 10 -25 17 -13 25 -24 18 -25 -6 0 -15 5 -18 10 -3 6 -15 10 -27 10 -14 0
-18 5 -14 15 3 8 1 15 -4 15 -6 0 -10 5 -10 11 0 6 7 8 16 5 8 -3 13 -2 10 2
-6 10 32 53 61 70 26 14 63 16 63 4 0 -5 12 -14 26 -21 23 -10 26 -10 20 4 -3
9 -6 28 -6 43 0 22 -2 24 -12 10 -7 -9 -34 -18 -61 -21 l-48 -5 23 25 23 26
-30 -16 c-16 -8 -40 -25 -52 -36 -31 -29 -35 -27 -28 17 l6 37 -16 -34 c-8
-18 -15 -41 -16 -50 0 -11 -3 -8 -10 7 -10 26 -24 23 -32 -8 -3 -11 -1 -18 3
-15 13 8 23 -36 11 -48 -6 -6 -11 -7 -11 -2 0 4 -10 0 -22 -11 -13 -10 -17
-12 -10 -4 6 8 12 19 12 26 0 14 -38 25 -46 13 -3 -5 -27 -9 -54 -9 -39 0 -52
4 -60 19 -14 27 -13 62 4 102 24 61 29 82 16 74 -6 -4 -20 -20 -29 -36 l-18
-30 -31 78 c-18 43 -28 82 -23 87 5 6 7 32 6 59 -2 39 0 45 11 36 8 -6 14 -17
14 -24 0 -7 11 -16 25 -19 30 -8 24 -23 -13 -38 -16 -6 -22 -12 -14 -15 7 -3
19 1 27 7 11 9 15 9 15 1 0 -6 8 -11 19 -11 10 0 24 -7 31 -15 7 -9 15 -13 18
-10 3 3 -3 15 -14 27 -10 12 -13 18 -6 14 6 -4 12 -2 12 3 0 6 -6 11 -14 11
-10 0 -11 7 -2 34 9 29 13 33 28 25 10 -6 23 -7 28 -4 6 4 13 -1 16 -9 3 -9
13 -16 21 -16 33 0 45 -29 41 -95 -2 -36 0 -59 4 -52 4 6 8 30 8 53 l0 41 61
7 c34 3 69 2 79 -4 10 -6 28 -10 39 -10 13 0 21 -6 21 -16 0 -11 5 -14 16 -10
20 8 54 -11 54 -30 0 -12 4 -13 21 -4 25 14 53 5 46 -14 -6 -16 11 -26 31 -19
6 3 9 10 5 15 -4 7 2 9 15 6 12 -4 22 -3 22 0 -1 18 -18 27 -47 27 -41 0 -48
19 -10 23 22 3 27 7 22 23 -8 25 -1 24 25 -3 27 -29 34 -19 15 25 -14 34 -44
52 -120 71 -11 3 4 3 34 0 49 -5 109 -35 110 -56 1 -4 6 -19 12 -35 11 -28 11
-28 20 -5 7 19 12 21 29 12 24 -13 26 2 5 40 -14 25 -14 25 -15 3 0 -31 -28
-30 -40 1 -5 13 -15 27 -22 30 -7 3 -1 4 13 1 25 -5 27 -2 33 47 4 29 12 58
18 65 6 7 7 13 4 13 -4 0 -2 9 4 20 9 17 8 20 -9 20 -22 0 -46 -58 -38 -91 5
-17 0 -19 -43 -19 -27 0 -57 -3 -67 -6 -14 -5 -14 -2 5 14 l22 20 -35 12 c-20
7 -44 9 -53 5 -12 -4 -14 -3 -7 4 16 17 70 16 96 0 47 -30 59 -31 59 -3 0 14
-4 23 -9 20 -5 -3 -25 14 -46 39 -38 47 -67 57 -83 28 -6 -10 -16 -14 -26 -10
-22 9 -56 -13 -56 -36 0 -10 11 -22 25 -27 23 -9 24 -12 14 -31 -9 -17 -13
-19 -19 -8 -5 7 -7 16 -4 20 2 4 -10 12 -27 19 -27 11 -32 11 -49 -8 -11 -12
-20 -28 -20 -37 0 -8 -7 -15 -15 -15 -19 0 -19 29 0 57 22 31 4 77 -26 68 -13
-4 -27 -1 -39 10 -12 11 -20 13 -25 5z m10 -160 c-20 -22 -35 -26 -35 -10 0 6
7 10 15 10 8 0 15 5 15 10 0 6 5 10 12 10 6 0 3 -9 -7 -20z m172 -74 c-4 -12
-37 -9 -50 3 -4 4 6 8 23 8 18 0 29 -5 27 -11z m113 -9 c0 -2 -15 -13 -32 -26
l-33 -22 28 25 c26 24 37 31 37 23z m-883 -232 c0 -17 -35 -20 -57 -4 -12 9
-11 10 6 6 12 -2 28 -1 35 4 8 5 14 9 15 9 0 0 1 -7 1 -15z m43 -5 c12 -8 11
-10 -7 -10 -13 0 -23 5 -23 10 0 13 11 13 30 0z m460 -114 c0 -3 -4 -8 -10
-11 -5 -3 -10 -1 -10 4 0 6 5 11 10 11 6 0 10 -2 10 -4z m92 -23 c9 -10 21
-29 27 -43 l12 -25 -18 21 c-11 12 -29 26 -41 33 -12 7 -20 16 -17 22 9 14 20
11 37 -8z m-1118 -130 c9 -32 21 -65 26 -74 6 -11 4 -23 -5 -35 -8 -12 -11
-31 -7 -49 5 -28 5 -29 -12 -12 -10 9 -21 17 -26 17 -5 0 -27 18 -50 40 -32
31 -37 40 -23 40 11 0 28 -7 39 -15 34 -26 42 -19 33 28 -11 56 -11 130 0 123
4 -3 16 -31 25 -63z m184 46 c-2 -6 -8 -10 -13 -10 -5 0 -11 4 -13 10 -2 6 4
11 13 11 9 0 15 -5 13 -11z m902 -4 c0 -8 -4 -15 -10 -15 -5 0 -10 7 -10 15 0
8 5 15 10 15 6 0 10 -7 10 -15z m-547 -19 c148 -29 271 -120 302 -226 l7 -25
-28 25 c-16 13 -7 1 21 -28 67 -71 55 -83 -52 -54 -109 31 -224 55 -229 49 -3
-3 30 -12 73 -22 106 -22 177 -46 166 -54 -10 -10 -181 -64 -199 -64 -8 0 -14
-4 -14 -8 0 -3 -9 -9 -21 -12 -12 -3 -18 -10 -14 -17 5 -8 11 -7 23 2 15 12
16 11 3 -5 -8 -10 -20 -16 -28 -13 -8 3 -11 1 -8 -4 8 -13 -73 -53 -96 -47
-11 3 -17 1 -13 -4 3 -5 -24 -9 -61 -9 -37 0 -64 4 -61 9 4 5 -2 7 -13 4 -10
-3 -22 1 -26 8 -6 8 -4 10 5 4 9 -5 11 -4 6 4 -4 6 -12 9 -17 5 -16 -10 -60
36 -82 86 -14 31 -20 66 -20 115 0 93 32 164 102 227 75 67 138 80 274 54z
m902 -7 c12 -19 -5 -23 -22 -6 -16 16 -16 17 -1 17 9 0 20 -5 23 -11z m-1255
-9 c0 -5 -4 -10 -10 -10 -5 0 -10 5 -10 10 0 6 5 10 10 10 6 0 10 -4 10 -10z
m728 -6 c42 -29 14 -112 -35 -102 -28 5 -47 52 -32 80 21 40 35 45 67 22z
m-840 -43 c10 -6 9 -13 -6 -31 l-19 -24 -7 22 c-11 34 4 51 32 33z m1696 -27
c22 -9 20 -24 -3 -24 -21 0 -34 13 -24 24 8 7 8 7 27 0z m-290 -13 c7 -11 -22
-23 -35 -15 -5 3 -7 10 -4 15 8 12 32 12 39 0z m-186 -19 c6 -18 -15 -14 -22
4 -4 10 -1 14 6 12 6 -2 14 -10 16 -16z m402 -13 c0 -5 -4 -9 -8 -9 -5 0 -9 7
-9 15 0 8 4 12 9 9 4 -3 8 -9 8 -15z m73 11 c7 0 7 -4 -2 -9 -16 -10 -41 -4
-41 11 0 6 7 7 16 4 9 -3 21 -6 27 -6z m86 -3 c12 -15 5 -27 -15 -27 -7 0 -12
9 -11 20 2 23 10 25 26 7z m-669 -23 c0 -8 -4 -12 -10 -9 -5 3 -10 13 -10 21
0 8 5 12 10 9 6 -3 10 -13 10 -21z m273 2 c3 -7 -9 -26 -26 -41 -31 -27 -32
-27 -35 -7 -7 45 46 87 61 48z m-68 -6 c3 -5 1 -10 -4 -10 -6 0 -11 5 -11 10
0 6 2 10 4 10 3 0 8 -4 11 -10z m-1693 -65 c-3 -5 -7 -4 -10 3 -2 7 -8 10 -13
6 -5 -3 -9 4 -9 15 0 15 -5 19 -17 15 -10 -3 -7 1 7 9 23 14 25 14 36 -11 6
-15 9 -31 6 -37z m68 61 c0 -2 -9 -6 -20 -9 -11 -3 -18 -1 -14 4 5 9 34 13 34
5z m1955 -6 c3 -5 2 -10 -4 -10 -5 0 -13 5 -16 10 -3 6 -2 10 4 10 5 0 13 -4
16 -10z m-215 -26 c0 -18 -26 -18 -33 0 -3 8 -3 16 0 19 9 10 33 -5 33 -19z
m476 15 c3 -6 0 -18 -8 -26 -13 -13 -17 -12 -32 2 -9 9 -14 21 -11 26 8 13 42
11 51 -2z m-636 -14 c20 -24 6 -28 -15 -5 -10 11 -13 20 -8 20 6 0 16 -7 23
-15z m-140 1 c0 -3 -4 -8 -10 -11 -5 -3 -10 -1 -10 4 0 6 5 11 10 11 6 0 10
-2 10 -4z m504 -19 c11 -8 17 -19 15 -25 -2 -6 -16 0 -32 14 -29 25 -15 34 17
11z m107 -28 c7 -14 7 -25 1 -31 -15 -15 -52 1 -52 21 0 36 33 43 51 10z
m-551 -4 c12 -2 36 -18 53 -35 l31 -30 -35 0 c-38 1 -68 19 -62 38 3 6 -2 12
-10 12 -8 0 -21 7 -28 16 -12 15 -11 16 8 10 12 -4 31 -9 43 -11z m648 1 c-2
-5 -20 -10 -42 -12 -38 -3 -39 10 -1 19 28 7 47 4 43 -7z m-1770 -61 c-3 -36
-2 -65 2 -65 12 0 24 -40 21 -67 -2 -17 3 -23 17 -23 10 0 27 -8 36 -19 15
-16 15 -19 1 -24 -8 -4 -22 -4 -30 -1 -9 4 -15 0 -15 -10 0 -13 -11 -16 -57
-16 -32 0 -69 -3 -83 -7 -23 -6 -24 -5 -11 11 10 12 24 16 43 14 15 -3 28 -3
28 -2 0 2 -11 20 -25 40 -34 50 -22 61 21 19 20 -19 40 -35 44 -35 10 0 7 46
-3 57 -15 14 -6 25 11 13 9 -7 2 1 -16 18 -27 23 -32 34 -27 55 5 20 3 25 -12
24 -10 -1 -21 -10 -25 -19 -8 -20 -33 -24 -43 -8 -4 6 8 28 25 50 24 30 39 40
61 40 16 0 29 5 29 10 0 6 3 10 6 10 4 0 4 -29 2 -65z m1851 32 c-2 -3 -24 -7
-49 -9 l-45 -6 40 19 c25 11 44 14 49 9 5 -5 8 -11 5 -13z m-498 -160 c-8 -8
-11 -7 -11 4 0 20 13 34 18 19 3 -7 -1 -17 -7 -23z m-1681 -162 c0 -8 -4 -15
-10 -15 -5 0 -10 7 -10 15 0 8 5 15 10 15 6 0 10 -7 10 -15z m84 -2 c11 -27
-11 -39 -34 -18 -11 10 -17 22 -14 26 9 15 42 10 48 -8z m-334 -61 c0 -13 -3
-12 -15 4 -19 25 -19 40 0 24 8 -7 15 -20 15 -28z m68 -3 c2 -36 -9 -26 -23
20 -5 17 -4 22 6 19 8 -3 15 -20 17 -39z m255 11 c9 0 19 -4 22 -10 3 -5 15
-10 26 -10 30 0 22 -17 -8 -18 -16 0 -39 -2 -53 -4 -19 -2 -25 1 -24 14 1 10
-1 17 -5 16 -24 -3 -41 4 -41 16 0 20 32 25 51 9 8 -7 23 -13 32 -13z m-185
-10 c-7 -10 -14 -17 -17 -15 -4 4 18 35 25 35 2 0 -1 -9 -8 -20z m-171 -32
c27 -11 63 -42 63 -52 0 -3 -14 0 -31 6 -20 7 -27 13 -19 18 8 5 1 11 -19 18
-17 6 -31 13 -31 16 0 8 6 7 37 -6z m463 -37 c14 -26 13 -38 -2 -23 -7 7 -22
12 -35 12 -13 0 -23 4 -23 8 0 28 45 29 60 3z m-130 -17 c13 -14 12 -14 -13
-5 -16 6 -43 11 -60 11 -25 0 -29 3 -17 10 19 13 70 4 90 -16z m-230 -24 c-8
-5 -19 -10 -25 -10 -5 0 -3 5 5 10 8 5 20 10 25 10 6 0 3 -5 -5 -10z m368 -12
c6 -6 12 -20 11 -32 0 -11 -3 -15 -6 -8 -2 6 -10 12 -16 12 -13 0 -47 30 -47
42 0 11 39 1 58 -14z m-10 -55 c14 -22 13 -23 -12 -23 -16 0 -25 4 -21 10 3 6
-1 10 -9 10 -17 0 -21 12 -9 24 12 12 35 2 51 -21z m-354 -33 c-14 -15 -87
-20 -99 -8 -16 15 8 25 59 24 49 -1 53 -3 40 -16z m1215 -196 c2 -2 -100 -4
-228 -4 -161 0 -230 3 -226 11 7 10 443 4 454 -7z m121 -58 c0 -18 -15 -36
-31 -36 -17 0 -18 3 -9 20 9 17 40 29 40 16z"/>
<path d="M918 1263 c6 -2 18 -2 25 0 6 3 1 5 -13 5 -14 0 -19 -2 -12 -5z"/>
<path d="M1440 1495 c0 -8 5 -15 10 -15 6 0 10 7 10 15 0 8 -4 15 -10 15 -5 0
-10 -7 -10 -15z"/>
<path d="M186 2269 c-29 -23 -34 -39 -11 -39 8 0 15 4 15 9 0 5 16 15 35 21
19 6 33 16 30 21 -10 15 -41 10 -69 -12z"/>
<path d="M2050 2283 c0 -5 5 -15 10 -23 8 -12 10 -11 10 8 0 12 -4 22 -10 22
-5 0 -10 -3 -10 -7z"/>
<path d="M2441 2271 c-10 -6 -5 -19 19 -52 23 -32 30 -37 25 -19 -7 22 -6 23
9 11 9 -7 16 -27 16 -43 0 -17 4 -27 10 -23 14 9 13 -8 -2 -23 -9 -9 -7 -13 5
-18 35 -13 42 1 39 74 -3 58 -7 71 -22 75 -14 4 -17 1 -13 -12 6 -15 5 -15
-13 0 -31 27 -59 38 -73 30z"/>
<path d="M50 2255 c-11 -13 -7 -15 29 -15 30 0 41 4 41 15 0 10 -10 15 -29 15
-16 0 -34 -7 -41 -15z"/>
<path d="M2107 2249 c6 -23 9 -24 16 -5 3 8 0 17 -7 19 -10 4 -12 -1 -9 -14z"/>
<path d="M2385 2260 c-4 -6 -1 -17 5 -25 16 -19 0 -19 -25 -1 -15 11 -25 12
-40 3 -18 -9 -19 -9 -5 8 14 17 13 18 -30 12 -111 -15 -115 -18 -118 -87 -4
-78 12 -112 22 -47 10 65 24 68 19 4 l-5 -52 27 43 c29 46 40 54 29 20 -6 -19
-4 -21 7 -12 21 16 87 24 114 14 22 -8 23 -7 16 13 -11 30 -79 37 -98 11 -7
-10 -13 -13 -13 -7 0 15 28 43 43 44 21 2 71 -2 88 -7 12 -3 16 2 13 21 -4 42
-34 69 -49 45z"/>
<path d="M2570 2261 c0 -6 4 -13 10 -16 6 -3 7 1 4 9 -7 18 -14 21 -14 7z"/>
<path d="M363 2206 c-27 -34 -38 -80 -24 -103 8 -15 10 -16 14 -3 3 8 13 36
22 62 22 59 16 80 -12 44z"/>
<path d="M30 2207 c-14 -7 -26 -21 -28 -31 -4 -17 0 -18 29 -11 19 5 46 8 62
8 34 0 35 20 2 35 -32 15 -34 15 -65 -1z"/>
<path d="M188 2198 c-8 -13 -18 -33 -22 -45 -4 -13 -12 -23 -18 -23 -10 0 -8
16 8 54 5 14 4 17 -4 12 -7 -4 -12 -14 -12 -22 0 -8 -5 -14 -11 -14 -6 0 -8
-9 -4 -20 5 -16 2 -20 -15 -20 -12 0 -30 5 -41 10 -23 13 -24 8 -4 -30 14 -27
14 -30 -1 -30 -22 0 -64 -46 -63 -68 0 -10 3 -12 6 -4 2 6 9 12 14 12 6 0 8
-4 5 -9 -3 -5 1 -23 10 -40 19 -39 12 -65 -16 -58 -11 3 -20 2 -20 -3 0 -4 9
-10 21 -13 12 -3 18 -10 14 -16 -3 -7 2 -11 14 -11 12 0 21 -4 21 -10 0 -5 -4
-10 -10 -10 -26 0 1 -52 31 -62 7 -2 9 -12 5 -26 -7 -21 -9 -21 -43 -7 -20 9
-38 13 -41 10 -3 -3 -2 -5 2 -5 4 0 2 -9 -4 -20 -7 -14 -7 -20 0 -20 5 0 10 6
10 13 0 8 4 7 10 -3 14 -22 12 -28 -10 -35 -13 -4 -20 -15 -20 -31 0 -17 4
-23 13 -18 9 6 9 4 0 -7 -20 -20 -15 -31 8 -19 11 6 25 9 32 6 9 -3 8 -5 -1
-5 -14 -1 -47 -30 -41 -35 2 -2 21 -6 41 -9 29 -4 38 -2 38 9 0 8 9 13 23 13
12 -1 36 5 53 12 29 12 34 11 55 -12 25 -27 109 -65 109 -50 0 4 -17 15 -37
24 l-38 16 50 0 c75 -1 78 0 71 16 -7 18 5 20 23 3 10 -11 11 -10 6 5 -4 10
-2 17 4 17 8 0 7 6 -1 21 -10 17 -10 23 0 26 17 7 15 28 -9 75 -17 33 -18 40
-5 35 8 -3 18 -2 21 3 4 6 -3 10 -14 10 -30 0 -36 19 -9 29 l23 10 -26 0 c-14
1 -47 -6 -73 -15 -26 -9 -49 -14 -52 -12 -7 8 70 58 90 58 14 0 12 8 -15 47
-18 25 -27 43 -21 39 7 -4 12 -1 12 9 0 15 1 15 16 0 21 -20 44 -3 44 32 0 13
4 22 9 19 10 -7 36 22 28 31 -4 3 -2 14 4 25 6 11 8 22 5 25 -10 10 -56 -27
-56 -44 0 -15 -2 -14 -14 2 -9 13 -25 19 -51 18 l-37 -1 6 60 c5 41 4 58 -3
53 -6 -3 -11 1 -11 9 0 16 -29 36 -53 36 -8 0 -21 -10 -29 -22z m65 -26 c23
-26 12 -65 -17 -56 -11 4 -21 7 -21 8 0 0 -6 11 -12 23 -7 13 -13 27 -13 33 0
17 46 11 63 -8z m5 -125 c2 -10 -3 -17 -12 -17 -10 0 -16 9 -16 21 0 24 23 21
28 -4z m-192 -21 c-1 -18 -4 -22 -14 -14 -9 8 -9 14 -1 24 16 19 17 18 15 -10z
m162 -13 c2 -8 -6 -13 -22 -13 -17 0 -26 5 -26 16 0 19 41 16 48 -3z m52 -2
c0 -6 -4 -13 -10 -16 -5 -3 -10 1 -10 9 0 9 5 16 10 16 6 0 10 -4 10 -9z m20
-21 c0 -5 -5 -10 -11 -10 -5 0 -7 5 -4 10 3 6 8 10 11 10 2 0 4 -4 4 -10z
m-199 -113 c-13 -13 -15 31 -3 60 5 14 8 10 10 -16 2 -18 -1 -38 -7 -44z m57
6 c-12 -15 -11 -15 9 -5 12 7 28 12 35 12 7 -1 0 -8 -17 -17 -56 -32 -69 -24
-38 24 9 14 19 20 21 14 2 -6 -2 -19 -10 -28z m-24 -217 c-6 -16 -24 -23 -24
-8 0 10 22 33 27 28 2 -2 1 -11 -3 -20z"/>
<path d="M2581 2180 c0 -19 4 -42 9 -50 8 -12 10 -11 9 5 -1 11 -5 34 -9 50
l-8 30 -1 -35z"/>
<path d="M520 2160 c0 -5 6 -9 13 -7 6 1 11 -3 10 -10 -1 -6 4 -14 12 -17 16
-6 19 3 9 28 -7 17 -44 22 -44 6z"/>
<path d="M2424 2155 c5 -11 12 -35 18 -52 10 -36 24 -47 15 -12 -3 13 -1 19 6
16 14 -5 36 22 36 43 0 8 -4 5 -9 -7 -12 -29 -30 -30 -22 -1 3 15 2 19 -7 14
-6 -4 -19 -2 -28 6 -15 11 -16 11 -9 -7z"/>
<path d="M1 2124 c0 -11 3 -14 6 -6 3 7 2 16 -1 19 -3 4 -6 -2 -5 -13z"/>
<path d="M2278 2112 c-21 -2 -28 -9 -28 -24 0 -21 0 -21 22 -2 13 10 18 12 12
4 -29 -39 -16 -105 17 -84 8 4 9 3 5 -4 -4 -7 -2 -12 5 -12 6 0 9 8 6 20 -6
24 5 26 23 5 10 -12 16 -13 27 -3 12 10 12 13 -3 21 -17 10 -17 11 1 17 11 4
28 3 38 -2 25 -13 29 -6 22 36 -5 27 -12 36 -27 36 -19 0 -19 -1 2 -27 12 -15
17 -29 11 -31 -10 -3 -65 22 -91 42 -8 6 -27 10 -42 8z"/>
<path d="M2581 2086 c-9 -10 -8 -15 4 -20 10 -4 15 1 15 14 0 24 -4 25 -19 6z"/>
<path d="M985 2080 c3 -5 17 -10 30 -10 13 0 27 5 30 10 4 6 -8 10 -30 10 -22
0 -34 -4 -30 -10z"/>
<path d="M0 2060 c0 -11 5 -20 10 -20 6 0 10 9 10 20 0 11 -4 20 -10 20 -5 0
-10 -9 -10 -20z"/>
<path d="M460 2065 c0 -8 5 -15 11 -15 8 0 8 -4 1 -12 -14 -19 -25 -75 -15
-81 11 -7 21 0 53 37 l25 29 -27 -5 c-31 -6 -34 -1 -13 26 8 10 12 23 9 27 -9
15 -44 10 -44 -6z"/>
<path d="M615 2054 c-39 -20 -64 -44 -47 -44 7 0 10 -4 7 -10 -9 -14 11 -12
27 3 7 6 28 24 46 40 26 21 29 27 15 27 -10 0 -31 -7 -48 -16z"/>
<path d="M1070 2033 c0 -14 19 -38 25 -32 8 8 -5 39 -16 39 -5 0 -9 -3 -9 -7z"/>
<path d="M1575 2020 c-8 -13 9 -20 24 -11 10 6 9 10 -3 14 -8 3 -18 2 -21 -3z"/>
<path d="M2592 2000 c0 -14 2 -19 5 -12 2 6 2 18 0 25 -3 6 -5 1 -5 -13z"/>
<path d="M2150 1986 c0 -8 5 -18 10 -21 6 -3 10 1 10 9 0 8 -4 18 -10 21 -5 3
-10 -1 -10 -9z"/>
<path d="M1712 1955 c0 -16 2 -22 5 -12 2 9 2 23 0 30 -3 6 -5 -1 -5 -18z"/>
<path d="M0 1953 c0 -13 5 -23 10 -23 13 0 13 11 0 30 -8 12 -10 11 -10 -7z"/>
<path d="M1608 1964 c-5 -4 -8 -16 -8 -28 0 -20 0 -20 -16 0 -9 10 -6 2 5 -18
20 -34 21 -37 4 -41 -10 -3 -1 -5 19 -6 20 0 43 -4 52 -7 9 -3 16 -2 16 4 0 6
-13 15 -29 20 -25 9 -30 17 -33 47 -2 20 -6 33 -10 29z"/>
<path d="M1838 1943 c6 -2 18 -2 25 0 6 3 1 5 -13 5 -14 0 -19 -2 -12 -5z"/>
<path d="M1728 1912 c-32 -33 -47 -75 -24 -66 8 3 17 13 21 22 5 13 8 14 14 3
5 -8 10 0 14 25 4 21 5 39 3 41 -1 1 -14 -10 -28 -25z"/>
<path d="M830 1884 c0 -21 24 -32 48 -23 37 14 28 40 -13 37 -19 -1 -35 -7
-35 -14z"/>
<path d="M416 1883 c-11 -11 -7 -22 13 -32 16 -9 18 -8 14 9 -6 23 -17 33 -27
23z"/>
<path d="M2265 1860 c3 -5 8 -10 11 -10 2 0 4 5 4 10 0 6 -5 10 -11 10 -5 0
-7 -4 -4 -10z"/>
<path d="M2366 1854 c-9 -8 -21 -25 -27 -37 -11 -19 -10 -19 19 4 17 13 31 30
31 37 1 16 -4 15 -23 -4z"/>
<path d="M2450 1854 c0 -10 -6 -14 -15 -10 -11 4 -15 -1 -15 -18 0 -13 -7 -27
-16 -30 -8 -3 -13 -10 -10 -15 8 -12 -17 -80 -29 -80 -5 0 -11 -5 -14 -12 -2
-7 1 -9 9 -4 7 4 35 7 61 6 40 -1 50 2 59 20 11 19 10 20 -10 9 -23 -12 -70
-6 -70 10 0 15 43 40 68 40 12 0 25 -7 28 -15 4 -8 19 -15 35 -15 21 0 32 -7
43 -27 8 -16 15 -23 16 -16 0 6 3 18 6 27 4 11 0 16 -12 16 -18 1 -18 1 -1 14
20 16 25 90 5 84 -7 -3 -15 -15 -19 -29 -6 -23 -6 -23 -10 6 -2 18 -11 31 -21
33 -14 3 -16 -3 -12 -35 6 -38 5 -38 -10 -13 -8 14 -21 35 -27 48 -14 25 -39
30 -39 6z"/>
<path d="M1570 1851 c-22 -6 -20 -8 20 -15 24 -4 51 -13 60 -21 11 -10 20 -11
30 -4 13 8 11 13 -9 29 -24 20 -56 24 -101 11z"/>
<path d="M470 1841 c0 -5 5 -13 10 -16 6 -3 10 -2 10 4 0 5 -4 13 -10 16 -5 3
-10 2 -10 -4z"/>
<path d="M1968 1806 c17 -20 32 -40 32 -43 0 -4 -12 -20 -27 -35 -20 -21 -24
-31 -15 -40 8 -8 17 -7 36 6 30 19 56 21 56 4 0 -9 3 -9 9 1 8 12 14 12 40 1
17 -7 31 -16 31 -21 0 -5 5 -9 10 -9 6 0 10 9 10 20 0 26 24 36 55 22 19 -9
24 -8 28 9 4 16 -1 21 -24 26 -35 7 -36 13 -4 41 26 23 33 42 14 42 -19 0 -49
-21 -49 -34 0 -31 -62 -24 -82 9 -4 7 -18 10 -32 8 -18 -4 -25 0 -28 13 -3 17
-5 17 -26 -4 -12 -12 -22 -19 -22 -14 0 4 -10 14 -22 21 -17 11 -15 5 10 -23z"/>
<path d="M4 1801 c0 -11 5 -17 14 -14 14 6 12 25 -4 30 -5 2 -10 -5 -10 -16z"/>
<path d="M1554 1790 c-32 -13 -43 -35 -13 -24 13 5 43 9 66 9 32 0 39 3 31 13
-12 14 -53 15 -84 2z"/>
<path d="M442 1761 c-9 -5 -6 -16 12 -40 l24 -32 16 23 c24 34 20 53 -12 55
-15 1 -33 -2 -40 -6z"/>
<path d="M2350 1739 c0 -5 5 -7 10 -4 6 3 10 8 10 11 0 2 -4 4 -10 4 -5 0 -10
-5 -10 -11z"/>
<path d="M2531 1711 c-11 -7 -9 -13 8 -30 27 -27 43 -19 28 14 -13 27 -16 29
-36 16z"/>
<path d="M785 1690 c-3 -5 1 -10 10 -10 9 0 13 5 10 10 -3 6 -8 10 -10 10 -2
0 -7 -4 -10 -10z"/>
<path d="M2470 1660 c0 -5 5 -10 10 -10 6 0 10 5 10 10 0 6 -4 10 -10 10 -5 0
-10 -4 -10 -10z"/>
<path d="M2025 1650 c-3 -5 1 -10 10 -10 9 0 13 5 10 10 -3 6 -8 10 -10 10 -2
0 -7 -4 -10 -10z"/>
<path d="M937 1624 c-4 -4 -7 -14 -7 -23 0 -11 3 -12 11 -4 6 6 10 16 7 23 -2
6 -7 8 -11 4z"/>
<path d="M816 1585 c-11 -30 -6 -40 11 -22 12 12 14 20 6 28 -7 7 -12 6 -17
-6z"/>
<path d="M2125 1570 c-8 -13 13 -40 31 -40 7 0 12 9 11 19 0 11 -5 17 -9 15
-4 -3 -8 0 -8 5 0 14 -17 14 -25 1z"/>
<path d="M140 1560 c-9 -6 -10 -10 -3 -10 6 0 15 5 18 10 8 12 4 12 -15 0z"/>
<path d="M2210 1541 c0 -14 6 -17 25 -13 14 2 25 9 25 14 0 5 -4 6 -10 3 -5
-3 -10 -1 -10 4 0 6 -7 11 -15 11 -8 0 -15 -8 -15 -19z"/>
<path d="M276 1527 c3 -10 9 -15 12 -12 3 3 0 11 -7 18 -10 9 -11 8 -5 -6z"/>
<path d="M720 1469 c0 -5 5 -7 10 -4 6 3 10 8 10 11 0 2 -4 4 -10 4 -5 0 -10
-5 -10 -11z"/>
<path d="M720 1421 c0 -17 18 -21 24 -6 3 9 0 15 -9 15 -8 0 -15 -4 -15 -9z"/>
<path d="M50 1341 c0 -5 9 -13 20 -16 11 -4 18 -10 16 -14 -3 -4 -1 -13 5 -21
7 -12 9 -11 9 5 -1 11 -7 28 -14 38 -14 18 -36 23 -36 8z"/>
<path d="M0 1293 c0 -25 1 -25 19 -9 19 17 20 17 23 -11 3 -26 6 -28 28 -23
l25 6 -34 32 c-41 39 -61 41 -61 5z"/>
<path d="M1647 1275 c-19 -17 -23 -25 -13 -25 10 0 16 -9 16 -22 0 -13 4 -29
9 -37 7 -11 10 -9 16 8 9 30 26 26 54 -12 l23 -32 -6 35 c-6 35 -50 110 -64
110 -4 0 -20 -12 -35 -25z"/>
<path d="M1813 1077 c-1 -87 -8 -163 -17 -197 -8 -30 -12 -57 -10 -59 2 -2 4
1 4 7 0 7 13 9 35 5 35 -6 36 -5 24 20 -7 17 -17 23 -27 20 -13 -5 -14 0 -7
38 4 24 9 99 10 166 2 67 6 127 10 133 3 5 0 10 -7 10 -10 0 -13 -33 -15 -143z"/>
<path d="M1541 1207 c34 -25 59 -36 57 -25 -3 14 -24 26 -47 27 -8 1 -12 0
-10 -2z"/>
<path d="M2592 1160 c0 -14 2 -19 5 -12 2 6 2 18 0 25 -3 6 -5 1 -5 -13z"/>
<path d="M1671 1151 c0 -14 -9 -34 -18 -45 -17 -20 -17 -20 6 0 15 14 21 29
18 45 l-4 24 -2 -24z"/>
<path d="M415 1120 c3 -5 8 -10 11 -10 2 0 4 5 4 10 0 6 -5 10 -11 10 -5 0 -7
-4 -4 -10z"/>
<path d="M2576 1113 c-11 -11 -6 -23 9 -23 8 0 15 4 15 9 0 13 -16 22 -24 14z"/>
<path d="M2446 1093 c-11 -11 -6 -23 9 -23 8 0 15 4 15 9 0 13 -16 22 -24 14z"/>
<path d="M12 1049 c12 -35 14 -36 20 -5 4 17 0 26 -13 29 -15 4 -16 1 -7 -24z"/>
<path d="M2040 1060 c0 -5 6 -10 14 -10 8 0 18 5 21 10 3 6 -3 10 -14 10 -12
0 -21 -4 -21 -10z"/>
<path d="M2485 1060 c-3 -5 -1 -10 4 -10 6 0 11 5 11 10 0 6 -2 10 -4 10 -3 0
-8 -4 -11 -10z"/>
<path d="M2553 1053 c-22 -8 -14 -32 13 -39 16 -4 23 -12 20 -20 -3 -8 -1 -14
4 -14 6 0 9 18 8 40 -1 40 -11 47 -45 33z"/>
<path d="M2385 1040 c-3 -5 1 -10 9 -10 9 0 16 5 16 10 0 6 -4 10 -9 10 -6 0
-13 -4 -16 -10z"/>
<path d="M2235 1009 c4 -5 18 -9 33 -8 15 0 37 -2 50 -6 13 -5 22 -3 22 3 0 6
-15 13 -32 16 -53 7 -79 5 -73 -5z"/>
<path d="M1915 990 c-3 -5 1 -10 9 -10 9 0 16 5 16 10 0 6 -4 10 -9 10 -6 0
-13 -4 -16 -10z"/>
<path d="M2130 984 c0 -8 32 -39 41 -39 4 0 11 -3 15 -7 11 -11 44 -10 44 2 0
11 -40 34 -40 23 0 -4 -5 0 -11 10 -9 15 -49 25 -49 11z"/>
<path d="M2198 983 c7 -3 16 -2 19 1 4 3 -2 6 -13 5 -11 0 -14 -3 -6 -6z"/>
<path d="M2321 966 c-13 -16 5 -27 42 -25 15 0 17 2 7 6 -8 3 -20 12 -26 19
-10 12 -13 12 -23 0z"/>
<path d="M2568 949 c-11 -6 -18 -22 -18 -39 0 -22 -7 -34 -27 -45 l-28 -16 35
6 c19 4 43 9 52 11 19 5 20 24 3 36 -6 5 -5 8 3 8 6 0 12 11 12 25 0 27 -6 30
-32 14z"/>
<path d="M2430 940 c0 -5 5 -10 11 -10 5 0 7 5 4 10 -3 6 -8 10 -11 10 -2 0
-4 -4 -4 -10z"/>
<path d="M2080 910 c0 -5 5 -10 10 -10 6 0 10 5 10 10 0 6 -4 10 -10 10 -5 0
-10 -4 -10 -10z"/>
<path d="M2119 920 c-4 -17 -7 -60 -4 -60 12 0 23 38 14 51 -5 7 -9 12 -10 9z"/>
<path d="M2450 900 c0 -5 5 -10 11 -10 5 0 7 5 4 10 -3 6 -8 10 -11 10 -2 0
-4 -4 -4 -10z"/>
<path d="M1870 880 c-21 -7 -21 -8 -5 -9 11 0 27 4 35 9 18 11 5 11 -30 0z"/>
<path d="M2162 883 c-13 -3 -21 -10 -19 -16 6 -18 24 -19 40 -3 8 8 18 12 22
8 5 -4 5 -1 1 6 -4 6 -10 11 -14 11 -4 -1 -17 -4 -30 -6z"/>
<path d="M2580 850 c0 -5 5 -10 10 -10 6 0 10 5 10 10 0 6 -4 10 -10 10 -5 0
-10 -4 -10 -10z"/>
<path d="M2320 820 c0 -5 7 -10 15 -10 8 0 15 5 15 10 0 6 -7 10 -15 10 -8 0
-15 -4 -15 -10z"/>
<path d="M2050 810 l-45 -7 42 -1 c30 -2 43 -7 46 -19 3 -11 5 -7 6 10 0 15 0
26 -1 25 -2 0 -23 -4 -48 -8z"/>
<path d="M2250 800 c8 -5 22 -10 30 -10 13 0 13 1 0 10 -8 5 -22 10 -30 10
-13 0 -13 -1 0 -10z"/>
<path d="M2435 792 c-22 -2 -46 -9 -54 -15 -12 -10 -7 -13 25 -17 42 -6 96 9
91 24 -4 12 -12 13 -62 8z"/>
<path d="M2270 766 c7 -7 14 -6 21 1 9 9 7 12 -9 10 -14 -1 -18 -5 -12 -11z"/>
<path d="M2456 741 c-3 -4 28 -9 69 -10 47 -1 75 2 75 8 0 13 -136 15 -144 2z"/>
<path d="M2289 712 c-14 -9 -27 -21 -29 -27 -11 -39 -23 -65 -31 -65 -4 0 -6
-7 -3 -15 4 -8 2 -15 -3 -15 -5 0 -10 -6 -11 -12 -1 -7 -5 -28 -8 -45 -4 -20
-2 -33 4 -33 6 0 8 -10 6 -22 -2 -13 -1 -16 2 -8 4 8 28 59 55 113 47 95 65
148 51 146 -4 0 -19 -8 -33 -17z"/>
<path d="M682 707 c-31 -14 -22 -31 19 -35 30 -3 37 1 48 25 10 22 10 25 0 16
-7 -7 -18 -9 -28 -4 -9 5 -26 4 -39 -2z"/>
<path d="M0 534 c0 -8 5 -12 10 -9 6 3 10 10 10 16 0 5 -4 9 -10 9 -5 0 -10
-7 -10 -16z"/>
<path d="M715 519 c-4 -6 -5 -12 -2 -15 2 -3 7 2 10 11 7 17 1 20 -8 4z"/>
<path d="M2083 515 c-7 -8 -13 -21 -13 -30 0 -12 -4 -14 -19 -5 -35 18 -44 12
-37 -22 10 -57 13 -63 24 -63 6 0 14 -3 18 -7 21 -22 39 18 43 95 2 52 2 53
-16 32z"/>
<path d="M690 479 c0 -5 5 -7 10 -4 6 3 10 8 10 11 0 2 -4 4 -10 4 -5 0 -10
-5 -10 -11z"/>
<path d="M1980 461 c0 -6 4 -13 10 -16 6 -3 7 1 4 9 -7 18 -14 21 -14 7z"/>
<path d="M647 445 c-4 -8 -2 -17 3 -20 6 -4 10 3 10 14 0 25 -6 27 -13 6z"/>
<path d="M676 433 c-6 -14 -5 -15 5 -6 7 7 10 15 7 18 -3 3 -9 -2 -12 -12z"/>
<path d="M1340 438 c0 -6 -6 -8 -14 -5 -11 4 -12 -1 -7 -21 10 -38 -9 -74 -34
-67 -56 18 -62 17 -68 -6 -4 -14 0 -33 9 -46 14 -22 13 -23 -11 -23 -14 0 -34
9 -46 21 -16 16 -28 20 -52 15 -49 -10 -51 -21 -12 -60 20 -20 33 -41 30 -46
-11 -17 5 -50 23 -48 52 4 70 -3 76 -27 10 -41 34 -42 66 -4 16 19 29 40 30
47 0 14 16 16 24 3 3 -5 -5 -16 -19 -25 -29 -19 -33 -43 -7 -49 15 -3 15 -5
-3 -11 -11 -5 -33 -13 -48 -19 -16 -5 -35 -16 -42 -23 -7 -7 -28 -20 -46 -28
-31 -13 -14 -14 201 -11 129 2 240 3 245 3 6 0 73 -2 150 -5 112 -3 138 -2
128 8 -7 7 -13 21 -13 31 0 10 -11 28 -25 40 l-25 21 28 17 c15 10 35 31 45
48 l18 31 -36 7 c-47 8 -84 -9 -98 -45 -10 -27 -11 -27 -39 -14 -38 19 -78 6
-119 -41 -17 -20 -37 -36 -44 -36 -18 0 -17 70 1 77 20 7 -1 43 -26 43 -11 0
-20 5 -20 11 0 7 -9 9 -23 6 -29 -8 -52 6 -43 28 4 12 0 18 -13 22 -12 3 -17
11 -14 19 3 8 0 21 -7 29 -11 13 -16 13 -45 -5 -40 -25 -64 -18 -57 15 3 21 8
23 33 18 86 -17 59 87 -28 109 -13 4 -23 2 -23 -4z"/>
<path d="M180 430 c-8 -5 -10 -10 -5 -10 6 0 17 5 25 10 8 5 11 10 5 10 -5 0
-17 -5 -25 -10z"/>
<path d="M420 405 c0 -13 5 -27 10 -30 6 -4 8 -10 5 -15 -3 -4 1 -13 9 -19 11
-9 15 -8 20 5 9 24 7 41 -3 25 -7 -11 -11 -9 -21 9 -9 17 -9 24 0 30 8 5 7 9
-4 13 -12 5 -16 0 -16 -18z"/>
<path d="M603 375 c0 -33 2 -45 4 -27 2 18 2 45 0 60 -2 15 -4 0 -4 -33z"/>
<path d="M32 409 c-17 -5 -32 -14 -32 -20 0 -6 7 -8 16 -5 9 3 31 6 50 6 24 0
34 5 34 15 0 17 -19 18 -68 4z"/>
<path d="M632 391 c1 -17 5 -28 10 -25 11 7 10 41 -1 49 -5 3 -9 -8 -9 -24z"/>
<path d="M350 398 l-35 -11 35 -8 c42 -10 60 -5 60 16 0 17 -10 18 -60 3z"/>
<path d="M2369 397 c-21 -16 -49 -75 -49 -104 0 -29 16 -30 24 0 5 22 65 65
136 99 22 10 28 17 17 17 -23 1 -87 -26 -110 -46 -17 -16 -18 -16 -7 11 13 34
10 38 -11 23z"/>
<path d="M256 380 c-14 -4 -16 -9 -8 -14 7 -4 12 -4 12 1 0 4 4 1 10 -7 11
-18 25 -6 13 13 -5 9 -15 12 -27 7z"/>
<path d="M2085 372 c-5 -4 -11 -28 -13 -53 -4 -60 18 -86 78 -93 25 -3 36 -2
26 1 -10 3 -15 8 -9 12 10 7 53 75 53 85 0 3 -26 6 -57 6 l-58 1 24 19 c13 11
22 20 20 21 -30 7 -56 7 -64 1z"/>
<path d="M317 356 c-3 -8 0 -21 6 -29 13 -16 72 -38 80 -31 9 10 -6 44 -19 44
-8 0 -14 7 -14 15 0 19 -46 20 -53 1z"/>
<path d="M1521 344 c-22 -28 -26 -51 -12 -73 7 -11 13 -10 35 4 37 24 46 44
33 72 -13 30 -31 29 -56 -3z"/>
<path d="M500 336 c0 -14 5 -28 10 -31 6 -3 10 5 10 19 0 14 -4 28 -10 31 -6
3 -10 -5 -10 -19z"/>
<path d="M647 333 c-4 -3 -7 -11 -7 -17 0 -6 5 -5 12 2 6 6 9 14 7 17 -3 3 -9
2 -12 -2z"/>
<path d="M1900 301 c0 -13 28 -22 35 -11 3 5 12 7 20 3 8 -3 15 0 15 6 0 6
-16 11 -35 11 -19 0 -35 -4 -35 -9z"/>
<path d="M679 283 c-13 -16 -12 -17 4 -4 16 12 22 9 18 -12 -1 -5 3 -6 9 -2 8
5 7 11 -1 21 -14 18 -14 18 -30 -3z"/>
<path d="M2425 280 c-4 -6 0 -17 9 -23 9 -7 22 -23 29 -36 18 -35 45 -50 57
-31 24 38 -7 90 -48 81 -8 -1 -19 3 -27 9 -10 8 -15 8 -20 0z"/>
<path d="M336 268 c4 -7 3 -8 -5 -4 -16 10 -40 -11 -36 -32 2 -9 4 -20 4 -24
2 -17 32 -6 66 23 39 35 38 49 -6 49 -20 0 -28 -4 -23 -12z"/>
<path d="M1956 263 c5 -4 16 -23 23 -41 8 -18 26 -43 42 -57 l29 -24 -26 -20
c-15 -12 -31 -21 -36 -21 -5 0 -7 -13 -3 -30 5 -25 3 -30 -12 -30 -20 0 -43
-18 -43 -32 0 -5 54 -8 119 -7 115 1 119 2 112 21 -4 10 -27 28 -51 39 l-45
20 29 -30 c16 -17 27 -33 25 -36 -3 -2 -27 18 -55 46 l-49 51 35 -7 c19 -4 48
-14 63 -22 16 -8 31 -12 34 -10 6 7 -34 116 -50 138 -7 10 -35 24 -62 32 -28
8 -59 18 -70 22 -11 4 -15 3 -9 -2z"/>
<path d="M2298 234 c3 -16 0 -24 -9 -24 -9 0 -7 -5 5 -11 14 -9 20 -8 27 2 14
23 10 46 -9 51 -15 4 -18 1 -14 -18z"/>
<path d="M1722 243 c-7 -3 -21 -22 -32 -43 l-20 -39 28 12 c49 21 75 45 69 61
-6 16 -21 19 -45 9z"/>
<path d="M1665 230 c3 -5 11 -10 16 -10 6 0 7 5 4 10 -3 6 -11 10 -16 10 -6 0
-7 -4 -4 -10z"/>
<path d="M753 206 c-40 -13 -88 -33 -107 -44 l-35 -21 6 31 c6 28 4 30 -13 23
-10 -4 -31 -7 -46 -6 -17 1 -33 -7 -45 -23 -11 -13 -30 -26 -43 -28 -13 -2
-30 -16 -40 -35 -13 -24 -20 -29 -31 -21 -11 8 -11 11 -1 15 10 4 8 9 -7 20
-12 8 -21 23 -21 33 0 24 -11 31 -37 24 -15 -4 -19 -11 -15 -26 3 -14 -2 -26
-14 -35 -16 -12 -20 -11 -31 9 -10 19 -12 20 -13 6 0 -18 -26 -24 -45 -10 -6
4 -11 22 -12 41 -1 18 -4 40 -7 47 -8 21 -54 17 -68 -6 -7 -11 -23 -20 -35
-20 -12 0 -25 -4 -28 -10 -3 -6 -1 -10 4 -10 6 0 11 -7 11 -16 0 -8 -4 -12
-10 -9 -5 3 -10 0 -10 -8 0 -8 -13 -20 -30 -26 -32 -11 -40 -35 -14 -45 8 -3
13 -10 10 -15 -4 -5 0 -12 6 -15 7 -3 4 -4 -6 -3 -10 1 -21 -4 -23 -11 -7 -17
404 -16 426 1 12 9 13 9 8 0 -6 -9 32 -12 158 -12 96 0 163 3 160 9 -11 19 17
21 66 5 37 -13 65 -15 112 -10 78 9 103 21 64 30 -32 8 -37 41 -7 50 11 3 20
9 20 13 -1 30 -56 50 -88 33 -14 -7 -23 -8 -27 -1 -9 15 -81 12 -94 -4 -8 -10
-8 -21 -1 -40 12 -34 12 -36 0 -36 -5 0 -10 6 -10 14 0 15 -21 26 -50 26 -10
0 -20 9 -23 20 -3 11 -13 20 -22 20 -31 0 -3 22 78 61 92 44 85 49 -20 15z
m-123 -121 c0 -8 -4 -15 -10 -15 -5 0 -10 7 -10 15 0 8 5 15 10 15 6 0 10 -7
10 -15z m-10 -47 c0 -13 -8 -18 -26 -18 -14 0 -23 4 -19 10 3 6 1 10 -4 10 -6
0 -11 4 -11 10 0 5 13 8 30 7 21 -1 30 -7 30 -19z"/>
<path d="M403 214 c-18 -8 -16 -46 2 -70 14 -18 16 -18 46 14 16 19 28 39 26
45 -4 13 -53 20 -74 11z"/>
<path d="M2562 190 c0 -14 2 -19 5 -12 2 6 2 18 0 25 -3 6 -5 1 -5 -13z"/>
<path d="M2193 189 c-6 -6 -9 -17 -6 -24 2 -8 -5 -18 -16 -25 -20 -10 -20 -13
-6 -40 8 -16 15 -35 15 -42 1 -36 59 -73 75 -48 5 8 11 7 21 -1 20 -17 17 -2
-8 40 l-21 36 26 -24 c15 -13 29 -32 33 -43 8 -27 84 -26 84 1 0 33 25 45 62
31 46 -18 56 -29 38 -40 -11 -7 -2 -10 30 -10 33 0 41 3 30 10 -12 8 -11 10 5
10 12 0 26 -5 33 -12 9 -9 12 6 12 68 0 45 -3 84 -6 87 -9 9 -44 -32 -44 -51
0 -11 -3 -12 -14 -3 -15 12 -74 -11 -82 -34 -3 -7 -15 -10 -30 -7 -19 3 -24
10 -21 23 3 10 0 20 -6 22 -16 5 2 27 23 27 10 0 22 5 26 12 11 17 -55 1 -80
-20 -21 -17 -21 -17 -2 6 14 16 17 25 8 34 -16 16 -40 3 -44 -24 -2 -18 -10
-24 -36 -26 -18 -2 -30 -7 -27 -12 3 -5 -8 -4 -26 2 -25 8 -33 8 -41 -3 -8
-12 -9 -11 -5 1 2 8 19 17 37 20 44 7 62 36 36 56 -24 17 -58 18 -73 3z"/>
<path d="M2410 10 c-9 -6 -10 -10 -3 -10 6 0 15 5 18 10 8 12 4 12 -15 0z"/>
</g>
</svg>
